<svg width="100" height="60" viewBox="0 0 100 60" fill="none" xmlns="http://www.w3.org/2000/svg">
<path d="M100 56.5H0V59.5H100V56.5Z" fill="black"/>
<rect width="100" height="58" fill="#D9D9D9"/>
<line x1="5" y1="28.5" x2="95" y2="28.5" stroke="black"/>
<path d="M8.125 44.0994C7.58996 44.0994 7.13423 43.9538 6.75781 43.6626C6.38139 43.3691 6.09375 42.9441 5.89489 42.3878C5.69602 41.8291 5.59659 41.1544 5.59659 40.3636C5.59659 39.5777 5.69602 38.9065 5.89489 38.3501C6.09612 37.7914 6.38494 37.3653 6.76136 37.0717C7.14015 36.7758 7.5947 36.6278 8.125 36.6278C8.6553 36.6278 9.10866 36.7758 9.48509 37.0717C9.86387 37.3653 10.1527 37.7914 10.3516 38.3501C10.5528 38.9065 10.6534 39.5777 10.6534 40.3636C10.6534 41.1544 10.554 41.8291 10.3551 42.3878C10.1562 42.9441 9.86861 43.3691 9.49219 43.6626C9.11577 43.9538 8.66004 44.0994 8.125 44.0994ZM8.125 43.3182C8.6553 43.3182 9.06723 43.0625 9.3608 42.5511C9.65436 42.0398 9.80114 41.3106 9.80114 40.3636C9.80114 39.7339 9.73366 39.1977 9.59872 38.755C9.46615 38.3123 9.27438 37.9749 9.02344 37.7429C8.77486 37.5109 8.47538 37.3949 8.125 37.3949C7.59943 37.3949 7.18868 37.6541 6.89276 38.1726C6.59683 38.6887 6.44886 39.419 6.44886 40.3636C6.44886 40.9934 6.51515 41.5284 6.64773 41.9688C6.7803 42.4091 6.97088 42.7441 7.21946 42.9737C7.47041 43.2034 7.77225 43.3182 8.125 43.3182Z" fill="black"/>
<path d="M80.3097 36.7273V44H79.429V37.6506H79.3864L77.6108 38.8295V37.9347L79.429 36.7273H80.3097ZM84.7734 44.0994C84.2384 44.0994 83.7827 43.9538 83.4062 43.6626C83.0298 43.3691 82.7422 42.9441 82.5433 42.3878C82.3445 41.8291 82.245 41.1544 82.245 40.3636C82.245 39.5777 82.3445 38.9065 82.5433 38.3501C82.7446 37.7914 83.0334 37.3653 83.4098 37.0717C83.7886 36.7758 84.2431 36.6278 84.7734 36.6278C85.3037 36.6278 85.7571 36.7758 86.1335 37.0717C86.5123 37.3653 86.8011 37.7914 87 38.3501C87.2012 38.9065 87.3018 39.5777 87.3018 40.3636C87.3018 41.1544 87.2024 41.8291 87.0036 42.3878C86.8047 42.9441 86.517 43.3691 86.1406 43.6626C85.7642 43.9538 85.3085 44.0994 84.7734 44.0994ZM84.7734 43.3182C85.3037 43.3182 85.7157 43.0625 86.0092 42.5511C86.3028 42.0398 86.4496 41.3106 86.4496 40.3636C86.4496 39.7339 86.3821 39.1977 86.2472 38.755C86.1146 38.3123 85.9228 37.9749 85.6719 37.7429C85.4233 37.5109 85.1238 37.3949 84.7734 37.3949C84.2479 37.3949 83.8371 37.6541 83.5412 38.1726C83.2453 38.6887 83.0973 39.419 83.0973 40.3636C83.0973 40.9934 83.1636 41.5284 83.2962 41.9688C83.4287 42.4091 83.6193 42.7441 83.8679 42.9737C84.1188 43.2034 84.4207 43.3182 84.7734 43.3182ZM91.0234 44.0994C90.4884 44.0994 90.0327 43.9538 89.6562 43.6626C89.2798 43.3691 88.9922 42.9441 88.7933 42.3878C88.5945 41.8291 88.495 41.1544 88.495 40.3636C88.495 39.5777 88.5945 38.9065 88.7933 38.3501C88.9946 37.7914 89.2834 37.3653 89.6598 37.0717C90.0386 36.7758 90.4931 36.6278 91.0234 36.6278C91.5537 36.6278 92.0071 36.7758 92.3835 37.0717C92.7623 37.3653 93.0511 37.7914 93.25 38.3501C93.4512 38.9065 93.5518 39.5777 93.5518 40.3636C93.5518 41.1544 93.4524 41.8291 93.2536 42.3878C93.0547 42.9441 92.767 43.3691 92.3906 43.6626C92.0142 43.9538 91.5585 44.0994 91.0234 44.0994ZM91.0234 43.3182C91.5537 43.3182 91.9657 43.0625 92.2592 42.5511C92.5528 42.0398 92.6996 41.3106 92.6996 40.3636C92.6996 39.7339 92.6321 39.1977 92.4972 38.755C92.3646 38.3123 92.1728 37.9749 91.9219 37.7429C91.6733 37.5109 91.3738 37.3949 91.0234 37.3949C90.4979 37.3949 90.0871 37.6541 89.7912 38.1726C89.4953 38.6887 89.3473 39.419 89.3473 40.3636C89.3473 40.9934 89.4136 41.5284 89.5462 41.9688C89.6787 42.4091 89.8693 42.7441 90.1179 42.9737C90.3688 43.2034 90.6707 43.3182 91.0234 43.3182Z" fill="black"/>
<path d="M23.6973 7.38281H26C26.0547 7.23047 26.0547 7.08984 26 6.96094H23.6973V5.67773C23.5996 5.63477 23.502 5.63477 23.4043 5.67773C23.2598 5.94727 23.0996 6.18359 22.9238 6.38672C22.748 6.58594 22.5996 6.72656 22.4785 6.80859C22.3613 6.88672 22.1914 6.98828 21.9688 7.11328C21.9414 7.19531 21.9414 7.28516 21.9688 7.38281H22.6836V10.4531C22.6836 11.5977 23.1562 12.1699 24.1016 12.1699C24.5039 12.1699 24.875 12.0664 25.2148 11.8594C25.5547 11.6484 25.8086 11.3906 25.9766 11.0859C25.9414 11 25.877 10.9531 25.7832 10.9453C25.416 11.2734 25.0605 11.4375 24.7168 11.4375C24.0371 11.4375 23.6973 11.1289 23.6973 10.5117V7.38281ZM25.7129 10.6934C25.959 10.7246 26.1348 10.8594 26.2402 11.0977C26.0371 11.4688 25.7422 11.7793 25.3555 12.0293C24.9688 12.2832 24.5508 12.4102 24.1016 12.4102C23 12.4102 22.4492 11.7578 22.4492 10.4531V7.61719H21.7285C21.6699 7.41016 21.6699 7.19531 21.7285 6.97266C21.9668 6.83594 22.1484 6.72461 22.2734 6.63867C22.3984 6.54883 22.5547 6.4043 22.7422 6.20508C22.9297 6.00586 23.0957 5.76562 23.2402 5.48438C23.6074 5.33203 24.0352 5.33984 24.5234 5.50781V6.7207H26.2285C26.3535 7.00977 26.3535 7.30859 26.2285 7.61719H24.5234V10.5117C24.5234 10.8867 24.6582 11.1074 24.9277 11.1738C25.1621 11.123 25.4238 10.9629 25.7129 10.6934ZM30.9453 11.7305C30.8984 11.8203 30.8984 11.916 30.9453 12.0176C31.9609 11.9941 32.9766 11.9941 33.9922 12.0176C34.0508 11.9238 34.0508 11.8281 33.9922 11.7305C33.043 11.6836 32.5645 11.4961 32.5566 11.168L32.4922 8.2207C32.4766 7.68555 32.3906 7.29492 32.2344 7.04883C32.0781 6.79883 31.8086 6.67383 31.4258 6.67383C30.7773 6.67383 30.0059 7.12109 29.1113 8.01562V3.22852C29.0801 3.16602 29.0117 3.11328 28.9062 3.07031C28.3633 3.32812 27.7988 3.48828 27.2129 3.55078C27.1895 3.64844 27.1895 3.74023 27.2129 3.82617C27.6621 3.84961 27.9941 3.92969 28.209 4.06641V11.168C28.2012 11.457 27.8652 11.6445 27.2012 11.7305C27.1543 11.8203 27.1543 11.916 27.2012 12.0176C28.2246 11.9785 29.2441 11.9785 30.2598 12.0176C30.3105 11.916 30.3105 11.8203 30.2598 11.7305C29.5332 11.6523 29.166 11.4648 29.1582 11.168C29.127 10.3359 29.1113 9.41016 29.1113 8.39062C29.8926 7.69922 30.5078 7.35352 30.957 7.35352C31.3828 7.35352 31.5957 7.70703 31.5957 8.41406L31.584 11.168C31.584 11.3594 31.5254 11.4941 31.4082 11.5723C31.291 11.6465 31.1367 11.6992 30.9453 11.7305ZM30.752 12.2227C30.6582 11.9922 30.6582 11.7559 30.752 11.5137C30.8809 11.5137 31.0117 11.4805 31.1445 11.4141C31.2773 11.3438 31.3438 11.2617 31.3438 11.168L31.3555 8.41406C31.3555 7.98828 31.2715 7.72852 31.1035 7.63477C30.8145 7.70508 30.4258 7.91602 29.9375 8.26758C29.9375 9.32227 29.9531 10.2852 29.9844 11.1562C30 11.3633 30.1562 11.4824 30.4531 11.5137C30.5508 11.7559 30.5508 11.9922 30.4531 12.2227C29.3086 12.1836 28.1562 12.1836 26.9961 12.2227C26.9023 11.9922 26.9023 11.7559 26.9961 11.5137C27.6367 11.4277 27.9609 11.3086 27.9688 11.1562V4.21289C27.707 4.13086 27.3828 4.07812 26.9961 4.05469C26.9102 3.82422 26.9102 3.57617 26.9961 3.31055C27.5898 3.2793 28.2539 3.10352 28.9883 2.7832C29.4141 2.81445 29.7305 2.94336 29.9375 3.16992V6.98438C30.4883 6.61719 31.125 6.43359 31.8477 6.43359C32.375 6.43359 32.75 6.57812 32.9727 6.86719C33.1992 7.15234 33.3164 7.60352 33.3242 8.2207C33.3398 9.75195 33.3594 10.7344 33.3828 11.168C33.3906 11.3281 33.666 11.4434 34.209 11.5137C34.2988 11.7715 34.291 12.0078 34.1855 12.2227C33.041 12.1992 31.8965 12.1992 30.752 12.2227ZM36.5879 3.76758C37.4707 3.76758 37.9121 4.08789 37.9121 4.72852C37.9121 5.36914 37.4707 5.68945 36.5879 5.68945C36.4551 5.68945 36.3301 5.66406 36.2129 5.61328C36.0996 5.5625 36 5.49414 35.9141 5.4082C35.8281 5.31836 35.7598 5.21484 35.709 5.09766C35.6582 4.98047 35.6328 4.85742 35.6328 4.72852C35.6328 4.59961 35.6582 4.47656 35.709 4.35938C35.7598 4.24219 35.8281 4.14062 35.9141 4.05469C36 3.96484 36.0996 3.89453 36.2129 3.84375C36.3301 3.79297 36.4551 3.76758 36.5879 3.76758ZM36.0488 4.22461C35.9316 4.36133 35.873 4.5293 35.873 4.72852C35.873 4.83008 35.8887 4.92578 35.9199 5.01562C35.9551 5.10156 36.002 5.17773 36.0605 5.24414C36.1191 5.30664 36.1855 5.35742 36.2598 5.39648C36.3379 5.43164 36.4199 5.44922 36.5059 5.44922C36.5879 5.44922 36.668 5.43164 36.7461 5.39648C36.8242 5.35742 36.8926 5.30664 36.9512 5.24414C37.0098 5.17773 37.0566 5.10156 37.0918 5.01562C37.127 4.92578 37.1445 4.83008 37.1445 4.72852C37.1445 4.62695 37.127 4.5332 37.0918 4.44727C37.0566 4.35742 37.0098 4.28125 36.9512 4.21875C36.8926 4.15234 36.8242 4.10156 36.7461 4.06641C36.668 4.02734 36.5879 4.00781 36.5059 4.00781C36.4238 4.00781 36.3438 4.02539 36.2656 4.06055C36.1875 4.0957 36.1152 4.15039 36.0488 4.22461ZM38.416 11.7305C37.4863 11.6445 37.0176 11.457 37.0098 11.168C36.9707 9.99609 36.9551 8.55664 36.9629 6.84961C36.9316 6.78711 36.8633 6.73633 36.7578 6.69727C36.2148 6.95117 35.6504 7.11133 35.0645 7.17773C35.041 7.27148 35.041 7.36328 35.0645 7.45312C35.5059 7.47656 35.8418 7.55664 36.0723 7.69336C36.1074 9.15039 36.1035 10.3086 36.0605 11.168C36.0527 11.457 35.7207 11.6445 35.0645 11.7305C35.0254 11.8281 35.0254 11.9238 35.0645 12.0176C36.1855 11.9941 37.3027 11.9941 38.416 12.0176C38.4551 11.9238 38.4551 11.8281 38.416 11.7305ZM38.6328 11.5137C38.6953 11.7559 38.6953 11.9922 38.6328 12.2227C37.375 12.1836 36.1152 12.1836 34.8535 12.2227C34.7871 11.9922 34.7871 11.7559 34.8535 11.5137C35.4902 11.4512 35.8125 11.332 35.8203 11.1562C35.8711 10.0625 35.875 8.95508 35.832 7.83398C35.5703 7.75586 35.2441 7.70508 34.8535 7.68164C34.7637 7.44727 34.7637 7.19922 34.8535 6.9375C35.4434 6.90625 36.1074 6.73047 36.8457 6.41016C37.2676 6.44141 37.582 6.56836 37.7891 6.79102C37.7734 8.71289 37.7891 10.168 37.8359 11.1562C37.8477 11.332 38.1133 11.4512 38.6328 11.5137ZM44.0059 7.93359C44.0059 8.17188 43.9062 8.32031 43.707 8.37891C43.6523 8.48047 43.6523 8.57227 43.707 8.6543C43.9062 8.6543 44.0742 8.58594 44.2109 8.44922C44.3477 8.3125 44.416 8.14062 44.416 7.93359C44.416 7.56641 44.2441 7.26562 43.9004 7.03125C43.5566 6.79297 43.1074 6.67383 42.5527 6.67383C41.7793 6.67383 41.1309 6.93555 40.6074 7.45898C40.0879 7.98242 39.8281 8.66797 39.8281 9.51562C39.8281 10.3945 40.0703 11.0566 40.5547 11.502C41.0391 11.9473 41.6094 12.1699 42.2656 12.1699C42.7461 12.1699 43.1914 12.041 43.6016 11.7832C44.0156 11.5215 44.3184 11.1289 44.5098 10.6055C44.4551 10.543 44.3789 10.5 44.2812 10.4766C44.1797 10.6211 44.0957 10.7285 44.0293 10.7988C43.9668 10.8652 43.8633 10.9609 43.7188 11.0859C43.5742 11.207 43.4121 11.2969 43.2324 11.3555C43.0527 11.4102 42.8555 11.4375 42.6406 11.4375C42.0312 11.4375 41.584 11.2598 41.2988 10.9043C41.0176 10.5449 40.877 10.082 40.877 9.51562C40.877 7.875 41.4355 7.05469 42.5527 7.05469C43.002 7.05469 43.3555 7.12891 43.6133 7.27734C43.875 7.42578 44.0059 7.64453 44.0059 7.93359ZM44.1758 10.248C44.4375 10.2793 44.6406 10.3867 44.7852 10.5703C44.5625 11.1797 44.2188 11.6387 43.7539 11.9473C43.2891 12.2559 42.793 12.4102 42.2656 12.4102C41.5547 12.4102 40.9297 12.168 40.3906 11.6836C39.8555 11.1992 39.5879 10.4766 39.5879 9.51562C39.5879 8.59766 39.8691 7.85547 40.4316 7.28906C40.998 6.71875 41.7051 6.43359 42.5527 6.43359C43.1777 6.43359 43.6836 6.57422 44.0703 6.85547C44.4609 7.13281 44.6562 7.49219 44.6562 7.93359C44.6562 8.20312 44.5645 8.41797 44.3809 8.57812C44.2012 8.73828 43.9766 8.81836 43.707 8.81836C43.2188 8.81836 42.9746 8.60352 42.9746 8.17383C42.9746 7.90039 43.1426 7.70312 43.4785 7.58203C43.2559 7.42969 43.0234 7.3418 42.7812 7.31836C42.0625 7.42383 41.7031 8.15625 41.7031 9.51562C41.7031 10.5391 42.082 11.0957 42.8398 11.1855C43.2969 11.127 43.7422 10.8145 44.1758 10.248ZM49.168 6.80273C49.1211 6.9082 49.1211 7 49.168 7.07812C49.2891 7.09375 49.4004 7.125 49.502 7.17188C49.6074 7.21484 49.6816 7.2793 49.7246 7.36523C49.7676 7.44727 49.7305 7.54102 49.6133 7.64648L48.4238 8.77148H47.9551C47.9473 7.61133 47.9434 5.77148 47.9434 3.25195C47.9043 3.18164 47.8359 3.12891 47.7383 3.09375C47.2188 3.34375 46.6152 3.50391 45.9277 3.57422C45.9043 3.67188 45.9043 3.76367 45.9277 3.84961C46.4551 3.87695 46.832 3.95703 47.0586 4.08984C47.0586 4.57812 47.0645 5.3125 47.0762 6.29297C47.0879 7.27344 47.0938 8.15625 47.0938 8.94141C47.0938 9.72266 47.0762 10.4746 47.041 11.1973C47.0332 11.4863 46.7012 11.6738 46.0449 11.7598C45.998 11.8574 45.998 11.9492 46.0449 12.0352C46.5605 12.0117 47.0566 12 47.5332 12C47.998 12 48.4863 12.0117 48.998 12.0352C49.0488 11.9492 49.0488 11.8574 48.998 11.7598C48.3262 11.6738 47.9902 11.4863 47.9902 11.1973C47.9668 10.7637 47.9551 10.0801 47.9551 9.14648H48.4121L50.0059 11.1973C50.2402 11.4941 50.1133 11.6699 49.625 11.7246C49.5781 11.8184 49.5781 11.9102 49.625 12H50.9668C51.4082 12 51.9043 12.0117 52.4551 12.0352C52.502 11.9492 52.502 11.8574 52.4551 11.7598C51.959 11.7051 51.6113 11.6094 51.4121 11.4727C51.2988 11.3984 51.1992 11.3066 51.1133 11.1973L49.1211 8.68945L50.1523 7.64648C50.4492 7.3418 50.9414 7.15234 51.6289 7.07812C51.6602 6.98438 51.6602 6.89258 51.6289 6.80273C50.7578 6.85352 49.9375 6.85352 49.168 6.80273ZM49.0625 6.5625C50.1172 6.60156 51.0273 6.59766 51.793 6.55078C51.8906 6.79297 51.8965 7.04492 51.8105 7.30664C51.0801 7.38086 50.584 7.54883 50.3223 7.81055L49.7656 8.37891L51.8926 11.0508C52.0215 11.2109 52.1348 11.3242 52.2324 11.3906C52.334 11.4531 52.4883 11.5039 52.6953 11.543C52.7852 11.8008 52.7773 12.0371 52.6719 12.252C51.8711 12.2051 50.8262 12.2051 49.5371 12.252C49.4199 12.0059 49.4043 11.7695 49.4902 11.543C49.7246 11.4961 49.7969 11.3809 49.707 11.1973L48.7812 10.0195C48.7812 10.5234 48.7949 10.916 48.8223 11.1973C48.8379 11.3809 48.9375 11.4961 49.1211 11.543C49.1992 11.75 49.1914 11.9863 49.0977 12.252C48.0312 12.2285 46.959 12.2285 45.8809 12.252C45.7207 12.0137 45.7129 11.7773 45.8574 11.543C46.4785 11.4648 46.7949 11.3457 46.8066 11.1855C46.8223 10.7988 46.8301 9.9375 46.8301 8.60156C46.8301 8.27344 46.8281 7.7832 46.8242 7.13086C46.8203 6.47461 46.8184 6.00195 46.8184 5.71289V4.23633C46.5605 4.1543 46.2031 4.10156 45.7461 4.07812C45.6602 3.84766 45.6602 3.59961 45.7461 3.33398C46.293 3.28711 46.9863 3.11133 47.8262 2.80664C48.248 2.83789 48.5625 2.9668 48.7695 3.19336V8.09766L49.4434 7.46484C49.498 7.41016 49.4941 7.36914 49.4316 7.3418C49.4004 7.33398 49.2715 7.31055 49.0449 7.27148C48.9277 7.04883 48.9336 6.8125 49.0625 6.5625ZM56.9492 11.7305C56.9023 11.8203 56.9023 11.916 56.9492 12.0176C57.9648 11.9941 58.9824 11.9941 60.002 12.0176C60.0566 11.9238 60.0566 11.8281 60.002 11.7305C59.0488 11.6836 58.5684 11.4961 58.5605 11.168L58.502 8.2207C58.4824 7.68555 58.3945 7.29492 58.2383 7.04883C58.0859 6.79883 57.8164 6.67383 57.4297 6.67383C56.7812 6.67383 56.0098 7.12109 55.1152 8.01562V6.84961C55.084 6.78711 55.0156 6.73633 54.9102 6.69727C54.3672 6.95117 53.8027 7.11133 53.2168 7.17773C53.1934 7.27148 53.1934 7.36328 53.2168 7.45312C53.666 7.47656 53.998 7.55664 54.2129 7.69336C54.2559 8.86133 54.2559 10.0195 54.2129 11.168C54.2051 11.457 53.8691 11.6445 53.2051 11.7305C53.1582 11.8203 53.1582 11.916 53.2051 12.0176C54.2207 11.9785 55.2422 11.9785 56.2695 12.0176C56.3164 11.916 56.3164 11.8203 56.2695 11.7305C55.5391 11.6523 55.1699 11.4648 55.1621 11.168C55.1309 10.3555 55.1152 9.42969 55.1152 8.39062C55.9004 7.69922 56.5156 7.35352 56.9609 7.35352C57.3867 7.35352 57.5996 7.70703 57.5996 8.41406L57.5879 11.168C57.5879 11.3594 57.5293 11.4941 57.4121 11.5723C57.2949 11.6465 57.1406 11.6992 56.9492 11.7305ZM56.7617 12.2227C56.6641 11.9922 56.6641 11.7559 56.7617 11.5137C56.8867 11.5137 57.0156 11.4805 57.1484 11.4141C57.2812 11.3438 57.3477 11.2617 57.3477 11.168L57.3594 8.41406C57.3594 7.98828 57.2754 7.72852 57.1074 7.63477C56.8184 7.70508 56.4297 7.91602 55.9414 8.26758C55.9414 9.3418 55.957 10.3047 55.9883 11.1562C56.0078 11.3633 56.1641 11.4824 56.457 11.5137C56.5547 11.7559 56.5547 11.9922 56.457 12.2227C55.3125 12.1836 54.1621 12.1836 53.0059 12.2227C52.9082 11.9922 52.9082 11.7559 53.0059 11.5137C53.6426 11.4277 53.9648 11.3086 53.9727 11.1562C54.0156 10.0547 54.0156 8.94727 53.9727 7.83398C53.7109 7.75586 53.3887 7.70508 53.0059 7.68164C52.916 7.44727 52.916 7.19922 53.0059 6.9375C53.5957 6.90625 54.2598 6.73047 54.998 6.41016C55.4199 6.44141 55.7344 6.56836 55.9414 6.79102V6.98438C56.4961 6.61719 57.1328 6.43359 57.8516 6.43359C58.3789 6.43359 58.7539 6.57812 58.9766 6.86719C59.2031 7.15234 59.3203 7.60352 59.3281 8.2207C59.3438 9.77148 59.3633 10.7539 59.3867 11.168C59.3945 11.3281 59.6699 11.4434 60.2129 11.5137C60.3027 11.7715 60.2949 12.0078 60.1895 12.2227C59.0449 12.1992 57.9023 12.1992 56.7617 12.2227ZM63.7695 7.05469C64.082 7.05469 64.3086 7.15625 64.4492 7.35938C64.5898 7.55859 64.6602 7.80859 64.6602 8.10938C64.6602 8.22266 64.6406 8.35156 64.6016 8.49609H62.3164C62.4375 8.00781 62.6328 7.64648 62.9023 7.41211C63.1758 7.17383 63.4648 7.05469 63.7695 7.05469ZM62.2578 8.89453H65.4512C65.5137 8.69922 65.5449 8.49805 65.5449 8.29102C65.5449 7.83398 65.4141 7.45117 65.1523 7.14258C64.8945 6.83008 64.4824 6.67383 63.916 6.67383C63.1777 6.67383 62.5566 6.94141 62.0527 7.47656C61.5488 8.01172 61.2969 8.69141 61.2969 9.51562C61.2969 10.3945 61.5371 11.0566 62.0176 11.502C62.498 11.9473 63.0625 12.1699 63.7109 12.1699C64.1914 12.1699 64.6367 12.041 65.0469 11.7832C65.4609 11.5215 65.7637 11.1289 65.9551 10.6055C65.9004 10.543 65.8242 10.5 65.7266 10.4766C65.7109 10.5 65.6641 10.5645 65.5859 10.6699C65.5117 10.7715 65.457 10.8457 65.4219 10.8926C65.3867 10.9355 65.3223 11 65.2285 11.0859C65.1387 11.168 65.0508 11.2285 64.9648 11.2676C64.8828 11.3066 64.7773 11.3457 64.6484 11.3848C64.5195 11.4199 64.3789 11.4375 64.2266 11.4375C63.625 11.4375 63.1465 11.2598 62.791 10.9043C62.4355 10.5449 62.25 10.0625 62.2344 9.45703C62.2344 9.32031 62.2422 9.13281 62.2578 8.89453ZM65.6328 10.2012C65.8789 10.2559 66.0781 10.3789 66.2305 10.5703C66.0078 11.1797 65.6641 11.6387 65.1992 11.9473C64.7344 12.2559 64.2383 12.4102 63.7109 12.4102C62.9922 12.4102 62.3691 12.168 61.8418 11.6836C61.3184 11.1992 61.0566 10.4766 61.0566 9.51562C61.0566 8.64453 61.3242 7.91406 61.8594 7.32422C62.3984 6.73047 63.1602 6.43359 64.1445 6.43359C65.6328 6.43359 66.377 7.05273 66.377 8.29102C66.377 8.5332 66.3203 8.81445 66.207 9.13477H63.0605V9.51562C63.0801 9.98828 63.209 10.373 63.4473 10.6699C63.6855 10.9629 64.0137 11.1348 64.4316 11.1855C64.6777 11.1621 64.8809 11.0781 65.041 10.9336C65.2012 10.7891 65.3984 10.5449 65.6328 10.2012ZM64.4199 8.10938C64.4199 7.67969 64.2754 7.41992 63.9863 7.33008C63.6426 7.43555 63.3867 7.74414 63.2188 8.25586H64.4082C64.4082 8.24023 64.4102 8.2168 64.4141 8.18555C64.418 8.1543 64.4199 8.12891 64.4199 8.10938ZM68.4277 12.0703C68.2402 12.1328 68.0566 12.209 67.877 12.2988C67.6934 12.1855 67.5723 12.0703 67.5137 11.9531C67.5215 11.9297 67.5332 11.8496 67.5488 11.7129C67.5645 11.5762 67.5801 11.416 67.5957 11.2324C67.6152 11.0488 67.6309 10.8594 67.6426 10.6641C67.6543 10.4688 67.6602 10.3027 67.6602 10.166C67.8438 10.0801 68.127 10.0371 68.5098 10.0371C68.5527 10.0371 68.5957 10.0371 68.6387 10.0371C68.6816 10.0371 68.7266 10.0391 68.7734 10.043C69.0547 10.957 69.4395 11.4531 69.9277 11.5312C70.127 11.5 70.2793 11.4277 70.3848 11.3145C70.4941 11.1973 70.5488 11.0664 70.5488 10.9219C70.5488 10.8164 70.5195 10.7188 70.4609 10.6289C70.4023 10.5352 70.3242 10.4492 70.2266 10.3711C70.1289 10.293 70.0137 10.2207 69.8809 10.1543C69.752 10.0879 69.6152 10.0234 69.4707 9.96094C69.3262 9.89453 69.1797 9.83203 69.0312 9.77344C68.8828 9.71094 68.7402 9.64648 68.6035 9.58008C68.459 9.51367 68.3223 9.43359 68.1934 9.33984C68.0645 9.24219 67.9512 9.13281 67.8535 9.01172C67.7559 8.88672 67.6777 8.75 67.6191 8.60156C67.5645 8.45312 67.5371 8.29297 67.5371 8.12109C67.5371 7.9375 67.5684 7.74609 67.6309 7.54688C67.6934 7.34766 67.8008 7.16602 67.9531 7.00195C68.1055 6.83789 68.3105 6.70312 68.5684 6.59766C68.8262 6.48828 69.1504 6.43359 69.541 6.43359C69.9746 6.43359 70.2949 6.45703 70.502 6.50391L70.7188 6.43359H71.1172C71.168 6.76562 71.2285 7.07617 71.2988 7.36523C71.373 7.6543 71.4551 7.92383 71.5449 8.17383C71.377 8.3418 71.1738 8.42578 70.9355 8.42578C70.8027 8.26953 70.6797 8.12891 70.5664 8.00391C70.4531 7.875 70.3438 7.76367 70.2383 7.66992C70.1367 7.57617 70.0352 7.5 69.9336 7.44141C69.8359 7.38281 69.7344 7.3418 69.6289 7.31836C69.3711 7.36133 69.2422 7.47852 69.2422 7.66992C69.2422 7.82227 69.3086 7.95508 69.4414 8.06836C69.5742 8.18164 69.7402 8.28516 69.9395 8.37891C70.1387 8.47266 70.3555 8.5625 70.5898 8.64844C70.8281 8.73047 71.0527 8.81836 71.2637 8.91211C71.416 8.97852 71.5586 9.06445 71.6914 9.16992C71.8281 9.27539 71.9473 9.39844 72.0488 9.53906C72.1504 9.67578 72.2305 9.83008 72.2891 10.002C72.3477 10.1699 72.377 10.3516 72.377 10.5469C72.377 10.8359 72.3027 11.0957 72.1543 11.3262C72.0098 11.5566 71.8164 11.752 71.5742 11.9121C71.3359 12.0723 71.0625 12.1953 70.7539 12.2812C70.4453 12.3672 70.1309 12.4102 69.8105 12.4102C69.2598 12.4102 68.7988 12.2969 68.4277 12.0703ZM69.7695 12.1699C70.2578 12.1699 70.6758 12.0254 71.0234 11.7363C71.3711 11.4473 71.5449 11.123 71.5449 10.7637C71.5449 10.4121 71.4375 10.1094 71.2227 9.85547C71.0078 9.59766 70.748 9.39844 70.4434 9.25781C70.1387 9.11719 69.832 8.98828 69.5234 8.87109C69.2148 8.75 68.9531 8.60938 68.7383 8.44922C68.5234 8.28906 68.416 8.10156 68.416 7.88672C68.416 7.61328 68.5176 7.40625 68.7207 7.26562C68.9238 7.125 69.1621 7.05469 69.4355 7.05469C69.7246 7.05469 69.9824 7.14453 70.209 7.32422C70.4355 7.50391 70.7129 7.79102 71.041 8.18555C71.1465 8.18555 71.2227 8.16016 71.2695 8.10938C71.125 7.69531 70.9102 7.35352 70.625 7.08398C70.3438 6.81055 69.9824 6.67383 69.541 6.67383C68.9121 6.67383 68.4609 6.82422 68.1875 7.125C67.9141 7.42188 67.7773 7.75391 67.7773 8.12109C67.7773 8.43359 67.8809 8.70117 68.0879 8.92383C68.2988 9.14258 68.5508 9.3125 68.8438 9.43359C69.1406 9.55078 69.4355 9.66797 69.7285 9.78516C70.0215 9.90234 70.2715 10.0547 70.4785 10.2422C70.6855 10.4297 70.7891 10.6562 70.7891 10.9219C70.7891 11.1445 70.6934 11.3438 70.502 11.5195C70.3105 11.6953 70.043 11.7832 69.6992 11.7832C69.2852 11.7832 68.9648 11.6523 68.7383 11.3906C68.5156 11.125 68.3281 10.7559 68.1758 10.2832C68.0391 10.2832 67.9473 10.2949 67.9004 10.3184C67.9004 10.5996 67.8867 10.9219 67.8594 11.2852C67.832 11.6484 67.8047 11.8633 67.7773 11.9297C67.8047 11.9688 67.8418 12.0039 67.8887 12.0352C68.0488 11.9219 68.1719 11.8027 68.2578 11.6777C68.6016 11.8691 68.8691 11.998 69.0605 12.0645C69.2559 12.1348 69.4922 12.1699 69.7695 12.1699ZM74.3105 12.0703C74.123 12.1328 73.9395 12.209 73.7598 12.2988C73.5762 12.1855 73.4551 12.0703 73.3965 11.9531C73.4043 11.9297 73.416 11.8496 73.4316 11.7129C73.4473 11.5762 73.4629 11.416 73.4785 11.2324C73.498 11.0488 73.5137 10.8594 73.5254 10.6641C73.5371 10.4688 73.543 10.3027 73.543 10.166C73.7266 10.0801 74.0098 10.0371 74.3926 10.0371C74.4355 10.0371 74.4785 10.0371 74.5215 10.0371C74.5645 10.0371 74.6094 10.0391 74.6562 10.043C74.9375 10.957 75.3223 11.4531 75.8105 11.5312C76.0098 11.5 76.1621 11.4277 76.2676 11.3145C76.377 11.1973 76.4316 11.0664 76.4316 10.9219C76.4316 10.8164 76.4023 10.7188 76.3438 10.6289C76.2852 10.5352 76.207 10.4492 76.1094 10.3711C76.0117 10.293 75.8965 10.2207 75.7637 10.1543C75.6348 10.0879 75.498 10.0234 75.3535 9.96094C75.209 9.89453 75.0625 9.83203 74.9141 9.77344C74.7656 9.71094 74.623 9.64648 74.4863 9.58008C74.3418 9.51367 74.2051 9.43359 74.0762 9.33984C73.9473 9.24219 73.834 9.13281 73.7363 9.01172C73.6387 8.88672 73.5605 8.75 73.502 8.60156C73.4473 8.45312 73.4199 8.29297 73.4199 8.12109C73.4199 7.9375 73.4512 7.74609 73.5137 7.54688C73.5762 7.34766 73.6836 7.16602 73.8359 7.00195C73.9883 6.83789 74.1934 6.70312 74.4512 6.59766C74.709 6.48828 75.0332 6.43359 75.4238 6.43359C75.8574 6.43359 76.1777 6.45703 76.3848 6.50391L76.6016 6.43359H77C77.0508 6.76562 77.1113 7.07617 77.1816 7.36523C77.2559 7.6543 77.3379 7.92383 77.4277 8.17383C77.2598 8.3418 77.0566 8.42578 76.8184 8.42578C76.6855 8.26953 76.5625 8.12891 76.4492 8.00391C76.3359 7.875 76.2266 7.76367 76.1211 7.66992C76.0195 7.57617 75.918 7.5 75.8164 7.44141C75.7188 7.38281 75.6172 7.3418 75.5117 7.31836C75.2539 7.36133 75.125 7.47852 75.125 7.66992C75.125 7.82227 75.1914 7.95508 75.3242 8.06836C75.457 8.18164 75.623 8.28516 75.8223 8.37891C76.0215 8.47266 76.2383 8.5625 76.4727 8.64844C76.7109 8.73047 76.9355 8.81836 77.1465 8.91211C77.2988 8.97852 77.4414 9.06445 77.5742 9.16992C77.7109 9.27539 77.8301 9.39844 77.9316 9.53906C78.0332 9.67578 78.1133 9.83008 78.1719 10.002C78.2305 10.1699 78.2598 10.3516 78.2598 10.5469C78.2598 10.8359 78.1855 11.0957 78.0371 11.3262C77.8926 11.5566 77.6992 11.752 77.457 11.9121C77.2188 12.0723 76.9453 12.1953 76.6367 12.2812C76.3281 12.3672 76.0137 12.4102 75.6934 12.4102C75.1426 12.4102 74.6816 12.2969 74.3105 12.0703ZM75.6523 12.1699C76.1406 12.1699 76.5586 12.0254 76.9062 11.7363C77.2539 11.4473 77.4277 11.123 77.4277 10.7637C77.4277 10.4121 77.3203 10.1094 77.1055 9.85547C76.8906 9.59766 76.6309 9.39844 76.3262 9.25781C76.0215 9.11719 75.7148 8.98828 75.4062 8.87109C75.0977 8.75 74.8359 8.60938 74.6211 8.44922C74.4062 8.28906 74.2988 8.10156 74.2988 7.88672C74.2988 7.61328 74.4004 7.40625 74.6035 7.26562C74.8066 7.125 75.0449 7.05469 75.3184 7.05469C75.6074 7.05469 75.8652 7.14453 76.0918 7.32422C76.3184 7.50391 76.5957 7.79102 76.9238 8.18555C77.0293 8.18555 77.1055 8.16016 77.1523 8.10938C77.0078 7.69531 76.793 7.35352 76.5078 7.08398C76.2266 6.81055 75.8652 6.67383 75.4238 6.67383C74.7949 6.67383 74.3438 6.82422 74.0703 7.125C73.7969 7.42188 73.6602 7.75391 73.6602 8.12109C73.6602 8.43359 73.7637 8.70117 73.9707 8.92383C74.1816 9.14258 74.4336 9.3125 74.7266 9.43359C75.0234 9.55078 75.3184 9.66797 75.6113 9.78516C75.9043 9.90234 76.1543 10.0547 76.3613 10.2422C76.5684 10.4297 76.6719 10.6562 76.6719 10.9219C76.6719 11.1445 76.5762 11.3438 76.3848 11.5195C76.1934 11.6953 75.9258 11.7832 75.582 11.7832C75.168 11.7832 74.8477 11.6523 74.6211 11.3906C74.3984 11.125 74.2109 10.7559 74.0586 10.2832C73.9219 10.2832 73.8301 10.2949 73.7832 10.3184C73.7832 10.5996 73.7695 10.9219 73.7422 11.2852C73.7148 11.6484 73.6875 11.8633 73.6602 11.9297C73.6875 11.9688 73.7246 12.0039 73.7715 12.0352C73.9316 11.9219 74.0547 11.8027 74.1406 11.6777C74.4844 11.8691 74.752 11.998 74.9434 12.0645C75.1387 12.1348 75.375 12.1699 75.6523 12.1699Z" fill="black"/>
</svg>
